<?xml version="1.0" standalone="no"?><!DOCTYPE svg PUBLIC "-//W3C//DTD SVG 1.1//EN" "http://www.w3.org/Graphics/SVG/1.1/DTD/svg11.dtd"><svg t="1600314368638" class="icon" viewBox="0 0 1024 1024" version="1.1" xmlns="http://www.w3.org/2000/svg" p-id="1002" xmlns:xlink="http://www.w3.org/1999/xlink" width="200" height="200"><defs><style type="text/css"></style></defs><path d="M512 0c409.6 0 512 102.4 512 512S921.6 1024 512 1024 0 921.6 0 512 102.4 0 512 0z" fill="#EA4B33" p-id="1003"></path><path d="M415.70304 723.453074a51.2 51.2 0 1 1 0 102.4 51.2 51.2 0 0 1 0-102.4z m273.027657 0a51.2 51.2 0 1 1 0 102.4 51.2 51.2 0 0 1 0-102.4z m113.716663-369.82784c18.853303 0 34.172343 15.313189 34.289371 34.172343l-79.661348 273.027657a34.189897 34.189897 0 0 1-34.172343 34.172343h-341.255314a34.189897 34.189897 0 0 1-34.172343-34.172343L274.449554 410.536229H182.447543a28.461349 28.461349 0 0 1 0-56.910995z m-62.62784 56.910995H378.558171l48.461532 204.8h250.283154l62.516663-204.8z" fill="#DB3219" p-id="1004"></path><path d="M404.000183 688.344503a51.2 51.2 0 1 1 0 102.4 51.2 51.2 0 0 1 0-102.4z m273.027657 0a51.2 51.2 0 1 1 0 102.4 51.2 51.2 0 0 1 0-102.4z m113.716663-369.82784c18.853303 0 34.172343 15.313189 34.289371 34.172343l-79.661348 273.027657a34.189897 34.189897 0 0 1-34.172343 34.172343h-341.255314a34.189897 34.189897 0 0 1-34.172343-34.172343L262.746697 375.427657H170.744686a28.461349 28.461349 0 0 1 0-56.910994z m-62.62784 56.910994H366.855314l48.461532 204.8h250.283154l62.516663-204.8z" fill="#FFFFFF" p-id="1005"></path></svg>