<?xml version="1.0" standalone="no"?><!DOCTYPE svg PUBLIC "-//W3C//DTD SVG 1.1//EN" "http://www.w3.org/Graphics/SVG/1.1/DTD/svg11.dtd"><svg t="1600314176810" class="icon" viewBox="0 0 1024 1024" version="1.1" xmlns="http://www.w3.org/2000/svg" p-id="1265" xmlns:xlink="http://www.w3.org/1999/xlink" width="200" height="200"><defs><style type="text/css"></style></defs><path d="M512 46.324C254.815 46.324 46.324 254.815 46.324 512S254.815 977.676 512 977.676 977.676 769.185 977.676 512 769.185 46.324 512 46.324z" fill="#E64747" p-id="1266"></path><path d="M792.993 371.151a73.401 73.401 0 0 0-51.756-51.756C695.625 307.2 512.617 307.2 512.617 307.2s-182.916 0-228.62 12.195c-25.135 6.703-44.961 26.532-51.756 51.759C220.045 416.768 220.045 512 220.045 512s0 95.232 12.196 140.849c6.702 25.132 26.526 44.958 51.756 51.756C329.7 716.8 512.617 716.8 512.617 716.8s183.008 0 228.62-12.195c25.134-6.703 44.96-26.532 51.756-51.759C805.188 607.232 805.188 512 805.188 512s0-95.232-12.195-140.849z" fill="#F8CACA" p-id="1267"></path><path d="M487.7 572.553l79.345-46.317a19.505 19.505 0 0 0 0-33.69L487.7 446.23a19.505 19.505 0 0 0-29.338 16.847v92.63a19.505 19.505 0 0 0 29.338 16.848z" fill="#ED5D5D" p-id="1268"></path></svg>